<mxfile host="Electron" agent="Mozilla/5.0 (Windows NT 10.0; Win64; x64) AppleWebKit/537.36 (KHTML, like Gecko) draw.io/28.1.2 Chrome/138.0.7204.243 Electron/37.4.0 Safari/537.36" version="28.1.2">
  <diagram name="Page-1" id="dUCNWD4QcwLBdRGlizBE">
    <mxGraphModel dx="1572" dy="1124" grid="1" gridSize="10" guides="1" tooltips="1" connect="1" arrows="1" fold="1" page="1" pageScale="1" pageWidth="850" pageHeight="1100" math="0" shadow="0">
      <root>
        <mxCell id="0" />
        <mxCell id="1" parent="0" />
        <mxCell id="Vg04etka-x7fTNyZHgI2-11" style="edgeStyle=orthogonalEdgeStyle;rounded=0;orthogonalLoop=1;jettySize=auto;html=1;endArrow=block;endFill=0;" edge="1" parent="1" source="Vg04etka-x7fTNyZHgI2-5" target="Vg04etka-x7fTNyZHgI2-9">
          <mxGeometry relative="1" as="geometry" />
        </mxCell>
        <mxCell id="Vg04etka-x7fTNyZHgI2-5" value="Quản trị viên" style="shape=umlActor;verticalLabelPosition=bottom;verticalAlign=top;html=1;outlineConnect=0;" vertex="1" parent="1">
          <mxGeometry x="560" y="485" width="25" height="50" as="geometry" />
        </mxCell>
        <mxCell id="Vg04etka-x7fTNyZHgI2-25" style="rounded=0;orthogonalLoop=1;jettySize=auto;html=1;entryX=0;entryY=1;entryDx=0;entryDy=0;endArrow=none;endFill=0;" edge="1" parent="1" source="Vg04etka-x7fTNyZHgI2-9" target="Vg04etka-x7fTNyZHgI2-14">
          <mxGeometry relative="1" as="geometry" />
        </mxCell>
        <mxCell id="Vg04etka-x7fTNyZHgI2-26" style="rounded=0;orthogonalLoop=1;jettySize=auto;html=1;exitX=0.5;exitY=0;exitDx=0;exitDy=0;exitPerimeter=0;entryX=0.5;entryY=1;entryDx=0;entryDy=0;endArrow=none;endFill=0;" edge="1" parent="1" source="Vg04etka-x7fTNyZHgI2-9" target="Vg04etka-x7fTNyZHgI2-13">
          <mxGeometry relative="1" as="geometry" />
        </mxCell>
        <mxCell id="Vg04etka-x7fTNyZHgI2-27" style="rounded=0;orthogonalLoop=1;jettySize=auto;html=1;exitX=0.5;exitY=0.5;exitDx=0;exitDy=0;exitPerimeter=0;entryX=0.5;entryY=1;entryDx=0;entryDy=0;endArrow=none;endFill=0;" edge="1" parent="1" source="Vg04etka-x7fTNyZHgI2-9" target="Vg04etka-x7fTNyZHgI2-23">
          <mxGeometry relative="1" as="geometry" />
        </mxCell>
        <mxCell id="Vg04etka-x7fTNyZHgI2-28" style="rounded=0;orthogonalLoop=1;jettySize=auto;html=1;exitX=0.5;exitY=0.5;exitDx=0;exitDy=0;exitPerimeter=0;endArrow=none;endFill=0;" edge="1" parent="1" source="Vg04etka-x7fTNyZHgI2-9" target="Vg04etka-x7fTNyZHgI2-15">
          <mxGeometry relative="1" as="geometry" />
        </mxCell>
        <mxCell id="Vg04etka-x7fTNyZHgI2-29" style="rounded=0;orthogonalLoop=1;jettySize=auto;html=1;exitX=0.5;exitY=0.5;exitDx=0;exitDy=0;exitPerimeter=0;endArrow=none;endFill=0;" edge="1" parent="1" source="Vg04etka-x7fTNyZHgI2-9" target="Vg04etka-x7fTNyZHgI2-16">
          <mxGeometry relative="1" as="geometry" />
        </mxCell>
        <mxCell id="Vg04etka-x7fTNyZHgI2-30" style="rounded=0;orthogonalLoop=1;jettySize=auto;html=1;exitX=0.5;exitY=0.5;exitDx=0;exitDy=0;exitPerimeter=0;entryX=0.5;entryY=0;entryDx=0;entryDy=0;endArrow=none;endFill=0;" edge="1" parent="1" source="Vg04etka-x7fTNyZHgI2-9" target="Vg04etka-x7fTNyZHgI2-17">
          <mxGeometry relative="1" as="geometry" />
        </mxCell>
        <mxCell id="Vg04etka-x7fTNyZHgI2-53" style="rounded=0;orthogonalLoop=1;jettySize=auto;html=1;exitX=0.5;exitY=0.5;exitDx=0;exitDy=0;exitPerimeter=0;entryX=0;entryY=0.5;entryDx=0;entryDy=0;endArrow=none;endFill=0;" edge="1" parent="1" source="Vg04etka-x7fTNyZHgI2-9" target="Vg04etka-x7fTNyZHgI2-52">
          <mxGeometry relative="1" as="geometry" />
        </mxCell>
        <mxCell id="Vg04etka-x7fTNyZHgI2-73" style="rounded=0;orthogonalLoop=1;jettySize=auto;html=1;exitX=1;exitY=1;exitDx=0;exitDy=0;exitPerimeter=0;endArrow=none;endFill=0;entryX=0;entryY=0.5;entryDx=0;entryDy=0;" edge="1" parent="1" source="Vg04etka-x7fTNyZHgI2-9" target="Vg04etka-x7fTNyZHgI2-60">
          <mxGeometry relative="1" as="geometry" />
        </mxCell>
        <mxCell id="Vg04etka-x7fTNyZHgI2-9" value="Người dùng" style="shape=umlActor;verticalLabelPosition=bottom;verticalAlign=top;html=1;outlineConnect=0;" vertex="1" parent="1">
          <mxGeometry x="720" y="485" width="25" height="50" as="geometry" />
        </mxCell>
        <mxCell id="Vg04etka-x7fTNyZHgI2-13" value="Đăng nhập" style="ellipse;whiteSpace=wrap;html=1;" vertex="1" parent="1">
          <mxGeometry x="670" y="210" width="110" height="40" as="geometry" />
        </mxCell>
        <mxCell id="Vg04etka-x7fTNyZHgI2-56" style="rounded=0;orthogonalLoop=1;jettySize=auto;html=1;exitX=0;exitY=0.5;exitDx=0;exitDy=0;entryX=1;entryY=1;entryDx=0;entryDy=0;endArrow=open;endFill=0;dashed=1;" edge="1" parent="1" source="Vg04etka-x7fTNyZHgI2-14" target="Vg04etka-x7fTNyZHgI2-13">
          <mxGeometry relative="1" as="geometry" />
        </mxCell>
        <mxCell id="Vg04etka-x7fTNyZHgI2-57" value="&amp;lt;&amp;lt;extend&amp;gt;&amp;gt;" style="edgeLabel;html=1;align=center;verticalAlign=middle;resizable=0;points=[];" vertex="1" connectable="0" parent="Vg04etka-x7fTNyZHgI2-56">
          <mxGeometry x="-0.2141" y="-2" relative="1" as="geometry">
            <mxPoint y="-1" as="offset" />
          </mxGeometry>
        </mxCell>
        <mxCell id="Vg04etka-x7fTNyZHgI2-14" value="Đăng ký" style="ellipse;whiteSpace=wrap;html=1;" vertex="1" parent="1">
          <mxGeometry x="1020" y="395" width="110" height="45" as="geometry" />
        </mxCell>
        <mxCell id="Vg04etka-x7fTNyZHgI2-15" value="Xem thông tin cá nhân" style="ellipse;whiteSpace=wrap;html=1;" vertex="1" parent="1">
          <mxGeometry x="1000" y="485" width="120" height="50" as="geometry" />
        </mxCell>
        <mxCell id="Vg04etka-x7fTNyZHgI2-16" value="Tra cứu thuốc" style="ellipse;whiteSpace=wrap;html=1;" vertex="1" parent="1">
          <mxGeometry x="700" y="710" width="120" height="50" as="geometry" />
        </mxCell>
        <mxCell id="Vg04etka-x7fTNyZHgI2-17" value="Xem thông tin tổng quan" style="ellipse;whiteSpace=wrap;html=1;" vertex="1" parent="1">
          <mxGeometry x="490" y="690" width="120" height="50" as="geometry" />
        </mxCell>
        <mxCell id="Vg04etka-x7fTNyZHgI2-37" style="rounded=0;orthogonalLoop=1;jettySize=auto;html=1;exitX=0.5;exitY=1;exitDx=0;exitDy=0;entryX=0.5;entryY=0;entryDx=0;entryDy=0;endArrow=open;endFill=0;dashed=1;" edge="1" parent="1" source="Vg04etka-x7fTNyZHgI2-19" target="Vg04etka-x7fTNyZHgI2-18">
          <mxGeometry relative="1" as="geometry" />
        </mxCell>
        <mxCell id="Vg04etka-x7fTNyZHgI2-40" value="&amp;lt;&amp;lt;include&amp;gt;&amp;gt;" style="edgeLabel;html=1;align=center;verticalAlign=middle;resizable=0;points=[];" vertex="1" connectable="0" parent="Vg04etka-x7fTNyZHgI2-37">
          <mxGeometry x="-0.1481" relative="1" as="geometry">
            <mxPoint y="1" as="offset" />
          </mxGeometry>
        </mxCell>
        <mxCell id="Vg04etka-x7fTNyZHgI2-38" style="rounded=0;orthogonalLoop=1;jettySize=auto;html=1;endArrow=open;endFill=0;dashed=1;entryX=0;entryY=0.5;entryDx=0;entryDy=0;" edge="1" parent="1" source="Vg04etka-x7fTNyZHgI2-20" target="Vg04etka-x7fTNyZHgI2-18">
          <mxGeometry relative="1" as="geometry" />
        </mxCell>
        <mxCell id="Vg04etka-x7fTNyZHgI2-42" value="&amp;lt;&amp;lt;include&amp;gt;&amp;gt;" style="edgeLabel;html=1;align=center;verticalAlign=middle;resizable=0;points=[];" vertex="1" connectable="0" parent="Vg04etka-x7fTNyZHgI2-38">
          <mxGeometry x="0.0745" relative="1" as="geometry">
            <mxPoint as="offset" />
          </mxGeometry>
        </mxCell>
        <mxCell id="Vg04etka-x7fTNyZHgI2-39" style="rounded=0;orthogonalLoop=1;jettySize=auto;html=1;exitX=1;exitY=0;exitDx=0;exitDy=0;entryX=0.5;entryY=1;entryDx=0;entryDy=0;endArrow=open;endFill=0;dashed=1;" edge="1" parent="1" source="Vg04etka-x7fTNyZHgI2-36" target="Vg04etka-x7fTNyZHgI2-18">
          <mxGeometry relative="1" as="geometry" />
        </mxCell>
        <mxCell id="Vg04etka-x7fTNyZHgI2-43" value="&amp;lt;&amp;lt;include&amp;gt;&amp;gt;" style="edgeLabel;html=1;align=center;verticalAlign=middle;resizable=0;points=[];" vertex="1" connectable="0" parent="Vg04etka-x7fTNyZHgI2-39">
          <mxGeometry x="0.0033" y="5" relative="1" as="geometry">
            <mxPoint x="1" as="offset" />
          </mxGeometry>
        </mxCell>
        <mxCell id="Vg04etka-x7fTNyZHgI2-44" style="rounded=0;orthogonalLoop=1;jettySize=auto;html=1;exitX=1;exitY=0;exitDx=0;exitDy=0;endArrow=open;endFill=0;dashed=1;" edge="1" parent="1" source="Vg04etka-x7fTNyZHgI2-18" target="Vg04etka-x7fTNyZHgI2-13">
          <mxGeometry relative="1" as="geometry" />
        </mxCell>
        <mxCell id="Vg04etka-x7fTNyZHgI2-45" value="&amp;lt;&amp;lt;include&amp;gt;&amp;gt;" style="edgeLabel;html=1;align=center;verticalAlign=middle;resizable=0;points=[];" vertex="1" connectable="0" parent="Vg04etka-x7fTNyZHgI2-44">
          <mxGeometry x="0.1032" y="2" relative="1" as="geometry">
            <mxPoint as="offset" />
          </mxGeometry>
        </mxCell>
        <mxCell id="Vg04etka-x7fTNyZHgI2-18" value="Quản lý dữ liệu" style="ellipse;whiteSpace=wrap;html=1;" vertex="1" parent="1">
          <mxGeometry x="310" y="485" width="120" height="50" as="geometry" />
        </mxCell>
        <mxCell id="Vg04etka-x7fTNyZHgI2-19" value="Xem dữ liệu thuốc" style="ellipse;whiteSpace=wrap;html=1;" vertex="1" parent="1">
          <mxGeometry x="290" y="275" width="120" height="55" as="geometry" />
        </mxCell>
        <mxCell id="Vg04etka-x7fTNyZHgI2-20" value="Tải dữ liệu thuốc" style="ellipse;whiteSpace=wrap;html=1;" vertex="1" parent="1">
          <mxGeometry x="100" y="420" width="120" height="45" as="geometry" />
        </mxCell>
        <mxCell id="Vg04etka-x7fTNyZHgI2-48" style="rounded=0;orthogonalLoop=1;jettySize=auto;html=1;exitX=0;exitY=1;exitDx=0;exitDy=0;entryX=0.5;entryY=1;entryDx=0;entryDy=0;dashed=1;endArrow=open;endFill=0;" edge="1" parent="1" source="Vg04etka-x7fTNyZHgI2-21" target="Vg04etka-x7fTNyZHgI2-15">
          <mxGeometry relative="1" as="geometry" />
        </mxCell>
        <mxCell id="Vg04etka-x7fTNyZHgI2-50" value="&amp;lt;&amp;lt;inlcude&amp;gt;&amp;gt;" style="edgeLabel;html=1;align=center;verticalAlign=middle;resizable=0;points=[];" vertex="1" connectable="0" parent="Vg04etka-x7fTNyZHgI2-48">
          <mxGeometry x="-0.2594" relative="1" as="geometry">
            <mxPoint as="offset" />
          </mxGeometry>
        </mxCell>
        <mxCell id="Vg04etka-x7fTNyZHgI2-21" value="Cập nhật thông tin cá nhân" style="ellipse;whiteSpace=wrap;html=1;" vertex="1" parent="1">
          <mxGeometry x="1190" y="550" width="140" height="70" as="geometry" />
        </mxCell>
        <mxCell id="Vg04etka-x7fTNyZHgI2-49" style="rounded=0;orthogonalLoop=1;jettySize=auto;html=1;exitX=0;exitY=0.5;exitDx=0;exitDy=0;entryX=0.5;entryY=0;entryDx=0;entryDy=0;endArrow=open;endFill=0;dashed=1;" edge="1" parent="1" source="Vg04etka-x7fTNyZHgI2-22" target="Vg04etka-x7fTNyZHgI2-15">
          <mxGeometry relative="1" as="geometry" />
        </mxCell>
        <mxCell id="Vg04etka-x7fTNyZHgI2-51" value="&amp;lt;&amp;lt;include&amp;gt;&amp;gt;" style="edgeLabel;html=1;align=center;verticalAlign=middle;resizable=0;points=[];" vertex="1" connectable="0" parent="Vg04etka-x7fTNyZHgI2-49">
          <mxGeometry x="-0.4809" y="-2" relative="1" as="geometry">
            <mxPoint x="1" as="offset" />
          </mxGeometry>
        </mxCell>
        <mxCell id="Vg04etka-x7fTNyZHgI2-22" value="Đổi mật khẩu" style="ellipse;whiteSpace=wrap;html=1;" vertex="1" parent="1">
          <mxGeometry x="1210" y="410" width="120" height="45" as="geometry" />
        </mxCell>
        <mxCell id="Vg04etka-x7fTNyZHgI2-54" style="rounded=0;orthogonalLoop=1;jettySize=auto;html=1;exitX=0;exitY=0.5;exitDx=0;exitDy=0;entryX=1;entryY=0.5;entryDx=0;entryDy=0;dashed=1;endArrow=open;endFill=0;" edge="1" parent="1" source="Vg04etka-x7fTNyZHgI2-23" target="Vg04etka-x7fTNyZHgI2-13">
          <mxGeometry relative="1" as="geometry" />
        </mxCell>
        <mxCell id="Vg04etka-x7fTNyZHgI2-55" value="&amp;lt;&amp;lt;include&amp;gt;&amp;gt;" style="edgeLabel;html=1;align=center;verticalAlign=middle;resizable=0;points=[];" vertex="1" connectable="0" parent="Vg04etka-x7fTNyZHgI2-54">
          <mxGeometry x="-0.0889" y="-4" relative="1" as="geometry">
            <mxPoint as="offset" />
          </mxGeometry>
        </mxCell>
        <mxCell id="Vg04etka-x7fTNyZHgI2-23" value="Đăng xuất" style="ellipse;whiteSpace=wrap;html=1;" vertex="1" parent="1">
          <mxGeometry x="880" y="250" width="120" height="40" as="geometry" />
        </mxCell>
        <mxCell id="Vg04etka-x7fTNyZHgI2-31" style="rounded=0;orthogonalLoop=1;jettySize=auto;html=1;exitX=0.5;exitY=0.5;exitDx=0;exitDy=0;exitPerimeter=0;entryX=1;entryY=0.5;entryDx=0;entryDy=0;endArrow=none;endFill=0;" edge="1" parent="1" source="Vg04etka-x7fTNyZHgI2-5" target="Vg04etka-x7fTNyZHgI2-18">
          <mxGeometry relative="1" as="geometry" />
        </mxCell>
        <mxCell id="Vg04etka-x7fTNyZHgI2-35" value="Thống kê dữ liệu" style="ellipse;whiteSpace=wrap;html=1;" vertex="1" parent="1">
          <mxGeometry x="100" y="220" width="120" height="50" as="geometry" />
        </mxCell>
        <mxCell id="Vg04etka-x7fTNyZHgI2-36" value="Cập nhật dữ liệu thuốc" style="ellipse;whiteSpace=wrap;html=1;" vertex="1" parent="1">
          <mxGeometry x="140" y="590" width="120" height="50" as="geometry" />
        </mxCell>
        <mxCell id="Vg04etka-x7fTNyZHgI2-46" style="rounded=0;orthogonalLoop=1;jettySize=auto;html=1;exitX=1;exitY=1;exitDx=0;exitDy=0;entryX=0.274;entryY=0.151;entryDx=0;entryDy=0;entryPerimeter=0;dashed=1;endArrow=open;endFill=0;" edge="1" parent="1" source="Vg04etka-x7fTNyZHgI2-35" target="Vg04etka-x7fTNyZHgI2-19">
          <mxGeometry relative="1" as="geometry" />
        </mxCell>
        <mxCell id="Vg04etka-x7fTNyZHgI2-47" value="&amp;lt;&amp;lt;extend&amp;gt;&amp;gt;" style="edgeLabel;html=1;align=center;verticalAlign=middle;resizable=0;points=[];" vertex="1" connectable="0" parent="Vg04etka-x7fTNyZHgI2-46">
          <mxGeometry x="-0.2228" y="-1" relative="1" as="geometry">
            <mxPoint as="offset" />
          </mxGeometry>
        </mxCell>
        <mxCell id="Vg04etka-x7fTNyZHgI2-52" value="Lưu/đánh dấu thuốc" style="ellipse;whiteSpace=wrap;html=1;" vertex="1" parent="1">
          <mxGeometry x="1240" y="770" width="140" height="70" as="geometry" />
        </mxCell>
        <mxCell id="Vg04etka-x7fTNyZHgI2-58" style="rounded=0;orthogonalLoop=1;jettySize=auto;html=1;exitX=0;exitY=0;exitDx=0;exitDy=0;entryX=0.705;entryY=0.892;entryDx=0;entryDy=0;entryPerimeter=0;endArrow=open;endFill=0;dashed=1;" edge="1" parent="1" source="Vg04etka-x7fTNyZHgI2-52" target="Vg04etka-x7fTNyZHgI2-13">
          <mxGeometry relative="1" as="geometry" />
        </mxCell>
        <mxCell id="Vg04etka-x7fTNyZHgI2-59" value="&amp;lt;&amp;lt;include&amp;gt;&amp;gt;" style="edgeLabel;html=1;align=center;verticalAlign=middle;resizable=0;points=[];" vertex="1" connectable="0" parent="Vg04etka-x7fTNyZHgI2-58">
          <mxGeometry x="-0.142" y="-3" relative="1" as="geometry">
            <mxPoint y="-1" as="offset" />
          </mxGeometry>
        </mxCell>
        <mxCell id="Vg04etka-x7fTNyZHgI2-63" style="rounded=0;orthogonalLoop=1;jettySize=auto;html=1;exitX=0;exitY=0;exitDx=0;exitDy=0;entryX=1;entryY=1;entryDx=0;entryDy=0;endArrow=open;endFill=0;dashed=1;" edge="1" parent="1" source="Vg04etka-x7fTNyZHgI2-60" target="Vg04etka-x7fTNyZHgI2-13">
          <mxGeometry relative="1" as="geometry" />
        </mxCell>
        <mxCell id="Vg04etka-x7fTNyZHgI2-64" value="&amp;lt;&amp;lt;inlcude&amp;gt;&amp;gt;" style="edgeLabel;html=1;align=center;verticalAlign=middle;resizable=0;points=[];" vertex="1" connectable="0" parent="Vg04etka-x7fTNyZHgI2-63">
          <mxGeometry x="-0.2673" y="1" relative="1" as="geometry">
            <mxPoint as="offset" />
          </mxGeometry>
        </mxCell>
        <mxCell id="Vg04etka-x7fTNyZHgI2-60" value="Xem lịch sử tra cứu" style="ellipse;whiteSpace=wrap;html=1;" vertex="1" parent="1">
          <mxGeometry x="980" y="782.5" width="120" height="45" as="geometry" />
        </mxCell>
        <mxCell id="Vg04etka-x7fTNyZHgI2-68" style="rounded=0;orthogonalLoop=1;jettySize=auto;html=1;exitX=1;exitY=0.5;exitDx=0;exitDy=0;entryX=0.5;entryY=1;entryDx=0;entryDy=0;dashed=1;endArrow=open;endFill=0;" edge="1" parent="1" source="Vg04etka-x7fTNyZHgI2-65" target="Vg04etka-x7fTNyZHgI2-52">
          <mxGeometry relative="1" as="geometry" />
        </mxCell>
        <mxCell id="Vg04etka-x7fTNyZHgI2-71" value="&amp;lt;&amp;lt;extend&amp;gt;&amp;gt;" style="edgeLabel;html=1;align=center;verticalAlign=middle;resizable=0;points=[];" vertex="1" connectable="0" parent="Vg04etka-x7fTNyZHgI2-68">
          <mxGeometry x="-0.2499" y="6" relative="1" as="geometry">
            <mxPoint x="-1" as="offset" />
          </mxGeometry>
        </mxCell>
        <mxCell id="Vg04etka-x7fTNyZHgI2-65" value="Xem chi tiết thông tin thuốc" style="ellipse;whiteSpace=wrap;html=1;" vertex="1" parent="1">
          <mxGeometry x="662.5" y="890" width="140" height="60" as="geometry" />
        </mxCell>
        <mxCell id="Vg04etka-x7fTNyZHgI2-66" style="rounded=0;orthogonalLoop=1;jettySize=auto;html=1;exitX=0;exitY=0;exitDx=0;exitDy=0;entryX=0.744;entryY=0.953;entryDx=0;entryDy=0;entryPerimeter=0;dashed=1;endArrow=open;endFill=0;" edge="1" parent="1" source="Vg04etka-x7fTNyZHgI2-65" target="Vg04etka-x7fTNyZHgI2-17">
          <mxGeometry relative="1" as="geometry" />
        </mxCell>
        <mxCell id="Vg04etka-x7fTNyZHgI2-69" value="&amp;lt;&amp;lt;extend&amp;gt;&amp;gt;" style="edgeLabel;html=1;align=center;verticalAlign=middle;resizable=0;points=[];" vertex="1" connectable="0" parent="Vg04etka-x7fTNyZHgI2-66">
          <mxGeometry x="0.3668" y="-3" relative="1" as="geometry">
            <mxPoint as="offset" />
          </mxGeometry>
        </mxCell>
        <mxCell id="Vg04etka-x7fTNyZHgI2-67" style="rounded=0;orthogonalLoop=1;jettySize=auto;html=1;exitX=0.5;exitY=0;exitDx=0;exitDy=0;entryX=0.383;entryY=1.07;entryDx=0;entryDy=0;entryPerimeter=0;dashed=1;endArrow=open;endFill=0;" edge="1" parent="1" source="Vg04etka-x7fTNyZHgI2-65" target="Vg04etka-x7fTNyZHgI2-16">
          <mxGeometry relative="1" as="geometry" />
        </mxCell>
        <mxCell id="Vg04etka-x7fTNyZHgI2-70" value="&amp;lt;&amp;lt;extend&amp;gt;&amp;gt;" style="edgeLabel;html=1;align=center;verticalAlign=middle;resizable=0;points=[];" vertex="1" connectable="0" parent="Vg04etka-x7fTNyZHgI2-67">
          <mxGeometry x="0.0813" y="-6" relative="1" as="geometry">
            <mxPoint y="1" as="offset" />
          </mxGeometry>
        </mxCell>
      </root>
    </mxGraphModel>
  </diagram>
</mxfile>
